<?xml version="1.0" encoding="UTF-8"?>
<svg width="16px" height="16px" viewBox="0 0 16 16" version="1.1" xmlns="http://www.w3.org/2000/svg" xmlns:xlink="http://www.w3.org/1999/xlink">
    <!-- Generator: Sketch 57.1 (83088) - https://sketch.com -->
    <title>icons/external_link</title>
    <desc>Created with Sketch.</desc>
    <g id="icons/external_link" stroke="none" stroke-width="1" fill="none" fill-rule="evenodd">
        <g id="external_link" transform="translate(0.000000, 0.000000)" fill="#0062FF">
            <path d="M8.40650407,8 C8.56816695,7.99985768 8.72315662,7.93552235 8.83739837,7.82113821 L14.5772358,2.08130081 L14.5772358,5.04878049 C14.5772358,5.38553948 14.8502329,5.65853659 15.1869919,5.65853659 C15.5237509,5.65853659 15.796748,5.38553948 15.796748,5.04878049 L15.796748,0.609756098 C15.796748,0.272997104 15.5237509,0 15.1869919,0 L10.7479675,0 C10.4112085,0 10.1382114,0.272997104 10.1382114,0.609756098 C10.1382114,0.946515091 10.4112085,1.2195122 10.7479675,1.2195122 L13.7154472,1.2195122 L7.93495935,6.95934959 C7.7607965,7.13372912 7.70873317,7.39580657 7.80301872,7.62351505 C7.89730426,7.85122354 8.11939703,7.99978322 8.36585366,8 L8.40650407,8 Z" id="Path"></path>
            <path d="M15.2520325,8.58536585 C14.9152735,8.58536585 14.6422764,8.85836296 14.6422764,9.19512195 L14.6422764,14.2357724 C14.6422764,14.4557882 14.4639183,14.6341463 14.2439024,14.6341463 L1.62601626,14.6341463 C1.40600038,14.6341463 1.22764228,14.4557882 1.22764228,14.2357724 L1.22764228,1.61788618 C1.22764228,1.3978703 1.40600038,1.2195122 1.62601626,1.2195122 L6.39837398,1.2195122 C6.73513297,1.21951219 7.00813007,0.946515086 7.00813007,0.609756098 C7.00813007,0.272997109 6.73513297,6.30606678e-14 6.39837398,6.30606678e-14 L1.62601626,6.30606678e-14 C0.727992277,6.30606678e-14 1.30562228e-13,0.727992277 1.30562228e-13,1.62601626 L1.30562228e-13,14.2357724 C1.30562228e-13,15.1337963 0.727992277,15.8617886 1.62601626,15.8617886 L14.2439024,15.8617886 C15.1419264,15.8617886 15.8699187,15.1337963 15.8699187,14.2357724 L15.8699187,9.19512195 C15.8699187,9.03198605 15.8045764,8.87564727 15.6884605,8.76105921 C15.5723446,8.64647116 15.4151539,8.58319071 15.2520325,8.58536585 Z" id="Path"></path>
        </g>
    </g>
</svg>