<?xml version="1.0" encoding="UTF-8"?>
<svg width="16px" height="16px" viewBox="0 0 16 16" version="1.1" xmlns="http://www.w3.org/2000/svg" xmlns:xlink="http://www.w3.org/1999/xlink">
    <!-- Generator: Sketch 57.1 (83088) - https://sketch.com -->
    <title>icons/issues</title>
    <desc>Created with Sketch.</desc>
    <g id="icons/issues" stroke="none" stroke-width="1" fill="none" fill-rule="evenodd">
        <g id="Group" transform="translate(2.000000, 0.000000)" fill="#243C56" fill-rule="nonzero">
            <path d="M7.96444444,14.1866667 L4.85333333,14.1866667 C3.12888889,14.1866667 1.74222222,12.8 1.74222222,11.0755556 L1.74222222,5.52888889 L2.43555556,5.52888889 L2.43555556,11.0755556 C2.43555556,12.4088889 3.52,13.4933333 4.85333333,13.4933333 L7.96444444,13.4933333 L7.96444444,14.1866667 Z" id="Path"></path>
            <path d="M2.08,4.16 C0.942222222,4.16 -7.23865412e-14,3.23555556 -7.23865412e-14,2.08 C-7.23865412e-14,0.924444444 0.924444444,-1.77635684e-15 2.08,-1.77635684e-15 C3.23555556,-1.77635684e-15 4.16,0.924444444 4.16,2.08 C4.16,3.23555556 3.21777778,4.16 2.08,4.16 Z" id="Path"></path>
            <path d="M9.68888889,15.9111111 C8.55111111,15.9111111 7.60888889,14.9866667 7.60888889,13.8311111 C7.60888889,12.6933333 8.53333333,11.7511111 9.68888889,11.7511111 C10.8266667,11.7511111 11.7688889,12.6755556 11.7688889,13.8311111 C11.7688889,14.9866667 10.8266667,15.9111111 9.68888889,15.9111111 Z" id="Path"></path>
            <path d="M7.96444444,8.64 L4.85333333,8.64 C3.12888889,8.64 1.74222222,7.25333333 1.74222222,5.52888889 L1.74222222,3.82222222 L2.43555556,3.82222222 L2.43555556,5.52888889 C2.43555556,6.86222222 3.52,7.94666667 4.85333333,7.94666667 L7.96444444,7.94666667 L7.96444444,8.64 Z" id="Path"></path>
            <path d="M9.68888889,10.3644444 C8.55111111,10.3644444 7.60888889,9.44 7.60888889,8.28444444 C7.60888889,7.12888889 8.55111111,6.22222222 9.68888889,6.22222222 C10.8266667,6.22222222 11.7688889,7.14666667 11.7688889,8.30222222 C11.7688889,9.45777778 10.8266667,10.3644444 9.68888889,10.3644444 Z" id="Path"></path>
        </g>
    </g>
</svg>