<?xml version="1.0" encoding="UTF-8"?>
<svg width="16px" height="16px" viewBox="0 0 16 16" version="1.1" xmlns="http://www.w3.org/2000/svg" xmlns:xlink="http://www.w3.org/1999/xlink">
    <!-- Generator: Sketch 57.1 (83088) - https://sketch.com -->
    <title>icons/link</title>
    <desc>Created with Sketch.</desc>
    <g id="icons/link" stroke="none" stroke-width="1" fill="none" fill-rule="evenodd">
        <g fill="#243C56" fill-rule="nonzero" id="Shape">
            <path d="M5.34787645,9.9526873 C5.53766502,9.9526873 5.69151906,10.1065413 5.69151906,10.2963299 C5.69151906,10.4861184 5.53766502,10.6399725 5.34787645,10.6399725 C4.93147244,10.6399725 4.93147244,10.6399725 3.69032999,10.6399725 C2.44957527,10.6399725 2.44957527,10.6399725 2.03044994,10.6399094 C0.573017172,10.6299524 -0.604013585,9.44532881 -0.604013585,7.98705156 C-0.604013585,6.52986685 0.571320189,5.34574311 2.02752238,5.3342152 C2.03182519,5.33413057 2.69514446,5.33413057 4.67874275,5.33413057 C6.66279198,5.33413057 6.66279198,5.33413057 7.32725792,5.33413057 C8.79242569,5.33413057 9.98017888,6.52188374 9.98017888,7.98705156 C9.98017888,8.27522847 9.93409552,8.55759953 9.84471084,8.82594641 C9.78473325,9.00600861 9.59014253,9.10335637 9.41008039,9.04337878 C9.2300182,8.98340118 9.13267036,8.78881046 9.19264796,8.60874826 C9.25877689,8.41021885 9.29289366,8.20117204 9.29289366,7.98705156 C9.29289366,6.90146091 8.4128485,6.02141579 7.32725792,6.02141579 C6.6627966,6.02141887 6.6627966,6.02141887 4.67874915,6.02143427 C2.69425366,6.02145761 2.03409963,6.02146988 2.03296305,6.02147888 C0.954131797,6.03001937 0.0832716383,6.90739245 0.0832716383,7.98705156 C0.0832716383,9.06752235 0.955386849,9.94526345 2.0351453,9.95264029 C2.44881172,9.9526561 2.44881172,9.9526561 3.6903376,9.95267348 C4.93147793,9.95268496 4.93147793,9.95268496 5.34787645,9.9526873 Z M10.6075699,6.02148965 C10.4177814,6.02149388 10.2639239,5.86764328 10.2639197,5.6778547 C10.2639154,5.48806613 10.4177661,5.33420866 10.6075546,5.33420443 C13.3680966,5.33413057 13.3680966,5.33413057 13.9251961,5.33413057 C15.3903638,5.33413057 16.578117,6.52188374 16.578117,7.98705156 C16.578117,9.45221933 15.3903638,10.6399725 13.9251961,10.6399725 C13.2613704,10.6399725 13.2613704,10.6399725 11.2779603,10.6399725 C9.29493964,10.6399725 8.63210246,10.6399725 8.62838809,10.6399094 C7.17095531,10.6299524 5.99392456,9.44532881 5.99392456,7.98705156 C5.99392456,7.70731266 6.03734782,7.4330161 6.12168511,7.17166318 C6.17996944,6.99104579 6.37363754,6.89187527 6.55425492,6.9501596 C6.73487229,7.00844393 6.83404287,7.20211197 6.77575854,7.38272936 C6.71336108,7.57609293 6.68120978,7.77918661 6.68120978,7.98705156 C6.68120978,9.06752235 7.553325,9.94526345 8.63308342,9.95264029 C8.63406445,9.95264696 9.29416899,9.9526561 11.2779651,9.95267348 C13.2613738,9.95268496 13.2613738,9.95268496 13.9251961,9.9526873 C15.0107866,9.9526873 15.8908318,9.07264214 15.8908318,7.98705156 C15.8908318,6.90146091 15.0107866,6.02141579 13.9251961,6.02141579 C13.3681144,6.0214281 13.3681144,6.0214281 10.6075699,6.02148965 Z" transform="translate(7.987052, 7.987052) rotate(-45.000000) translate(-7.987052, -7.987052) "></path>
        </g>
    </g>
</svg>