<?xml version="1.0" encoding="UTF-8"?>
<svg width="16px" height="16px" viewBox="0 0 16 16" version="1.1" xmlns="http://www.w3.org/2000/svg" xmlns:xlink="http://www.w3.org/1999/xlink">
    <!-- Generator: Sketch 57.1 (83088) - https://sketch.com -->
    <title>icons/location</title>
    <desc>Created with Sketch.</desc>
    <g id="icons/location" stroke="none" stroke-width="1" fill="none" fill-rule="evenodd">
        <path d="M2.95773415,9.24847481 L2.98773415,9.29180815 C3.02440082,9.34680815 3.06273415,9.40014148 3.10106749,9.45847481 L7.44440082,15.6984748 C7.57122702,15.8806062 7.77912888,15.9891764 8.00106749,15.9891764 C8.22300609,15.9891764 8.43090796,15.8806062 8.55773415,15.6984748 L12.8910675,9.46347481 C12.9327342,9.40514148 12.9727342,9.34847481 13.0127342,9.29680815 L13.0394008,9.25680815 L13.0394008,9.25680815 C14.6611557,6.74751288 14.189596,3.42736492 11.9332822,1.46887068 C9.67696841,-0.48962356 6.3234999,-0.48962356 4.06718609,1.46887068 C1.81087227,3.42736492 1.33931258,6.74751288 2.96106749,9.25680815 L2.95773415,9.24847481 Z M8.00106749,3.50347481 C9.38177936,3.50347481 10.5010675,4.62276294 10.5010675,6.00347481 C10.5010675,7.38418669 9.38177936,8.50347481 8.00106749,8.50347481 C6.62035561,8.50347481 5.50106749,7.38418669 5.50106749,6.00347481 C5.50106749,4.62276294 6.62035561,3.50347481 8.00106749,3.50347481 L8.00106749,3.50347481 Z" fill="#243C56" fill-rule="nonzero"></path>
    </g>
</svg>